{
  "accessors": [
    {
      "bufferView": 2,
      "componentType": 5126,
      "count": 14062,
      "max": [
        0.9955069422721863,
        4.0481061935424805,
        0.9955078363418579
      ],
      "min": [
        -0.9955071210861206,
        -1.000000238418579,
        -0.9955068826675415
      ],
      "type": "VEC3"
    },
    {
      "bufferView": 2,
      "byteOffset": 168744,
      "componentType": 5126,
      "count": 14062,
      "max": [
        0.999995231628418,
        1.0,
        0.9999963045120239
      ],
      "min": [
        -0.9999954700469971,
        -1.0,
        -0.9999962449073792
      ],
      "type": "VEC3"
    },
    {
      "bufferView": 3,
      "componentType": 5126,
      "count": 14062,
      "max": [
        0.9999995231628418,
        0.9999979734420776,
        0.9928268790245056,
        1.0
      ],
      "min": [
        -1.0,
        -0.9999898076057434,
        -0.9999909996986389,
        -1.0
      ],
      "type": "VEC4"
    },
    {
      "bufferView": 1,
      "componentType": 5126,
      "count": 14062,
      "max": [
        0.9999998807907104,
        0.9946637749671936
      ],
      "min": [
        3.0398373382922728e-06,
        2.4875007511582226e-05
      ],
      "type": "VEC2"
    },
    {
      "bufferView": 0,
      "componentType": 5125,
      "count": 66240,
      "type": "SCALAR"
    },
    {
      "bufferView": 2,
      "byteOffset": 337488,
      "componentType": 5126,
      "count": 14652,
      "max": [
        0.957808792591095,
        3.640324354171753,
        0.9423418641090393
      ],
      "min": [
        -0.9578090310096741,
        -1.0000003576278687,
        -0.942342221736908
      ],
      "type": "VEC3"
    },
    {
      "bufferView": 2,
      "byteOffset": 513312,
      "componentType": 5126,
      "count": 14652,
      "max": [
        0.9999961853027344,
        1.0,
        0.9999986290931702
      ],
      "min": [
        -0.9999961853027344,
        -1.0,
        -0.9999985694885254
      ],
      "type": "VEC3"
    },
    {
      "bufferView": 3,
      "byteOffset": 224992,
      "componentType": 5126,
      "count": 14652,
      "max": [
        0.9999496340751648,
        0.9999983310699463,
        0.997069239616394,
        1.0
      ],
      "min": [
        -0.9999953508377075,
        -0.9999604225158691,
        -0.9895003437995911,
        1.0
      ],
      "type": "VEC4"
    },
    {
      "bufferView": 1,
      "byteOffset": 112496,
      "componentType": 5126,
      "count": 14652,
      "max": [
        0.9988440275192261,
        1.0000001192092896
      ],
      "min": [
        0.0,
        0.0
      ],
      "type": "VEC2"
    },
    {
      "bufferView": 0,
      "byteOffset": 264960,
      "componentType": 5125,
      "count": 68160,
      "type": "SCALAR"
    },
    {
      "bufferView": 2,
      "byteOffset": 689136,
      "componentType": 5126,
      "count": 9597,
      "max": [
        0.6766396164894104,
        1.6148368120193481,
        0.687869131565094
      ],
      "min": [
        -0.7033653855323792,
        -1.628815770149231,
        -0.6919831037521362
      ],
      "type": "VEC3"
    },
    {
      "bufferView": 2,
      "byteOffset": 804300,
      "componentType": 5126,
      "count": 9597,
      "max": [
        0.9999879002571106,
        1.0,
        0.9999879002571106
      ],
      "min": [
        -0.9999878406524658,
        -1.0,
        -0.9999879002571106
      ],
      "type": "VEC3"
    },
    {
      "bufferView": 3,
      "byteOffset": 459424,
      "componentType": 5126,
      "count": 9597,
      "max": [
        0.9759529829025269,
        0.9999420046806335,
        0.9998999238014221,
        1.0
      ],
      "min": [
        -0.9999887943267822,
        -0.999986469745636,
        -0.9879719614982605,
        -1.0
      ],
      "type": "VEC4"
    },
    {
      "bufferView": 1,
      "byteOffset": 229712,
      "componentType": 5126,
      "count": 9597,
      "max": [
        0.9997878670692444,
        0.9817286729812622
      ],
      "min": [
        0.0,
        0.0
      ],
      "type": "VEC2"
    },
    {
      "bufferView": 0,
      "byteOffset": 537600,
      "componentType": 5125,
      "count": 42432,
      "type": "SCALAR"
    },
    {
      "bufferView": 2,
      "byteOffset": 919464,
      "componentType": 5126,
      "count": 7747,
      "max": [
        1.1493911743164063,
        3.234668731689453,
        1.1493911743164063
      ],
      "min": [
        -1.1493910551071167,
        -1.0000001192092896,
        -1.1493909358978271
      ],
      "type": "VEC3"
    },
    {
      "bufferView": 2,
      "byteOffset": 1012428,
      "componentType": 5126,
      "count": 7747,
      "max": [
        0.9999992847442627,
        1.0,
        0.9999992251396179
      ],
      "min": [
        -0.9999992251396179,
        -1.0,
        -0.9999992847442627
      ],
      "type": "VEC3"
    },
    {
      "bufferView": 3,
      "byteOffset": 612976,
      "componentType": 5126,
      "count": 7747,
      "max": [
        0.9999971389770508,
        0.9999991655349731,
        0.9999967813491821,
        1.0
      ],
      "min": [
        -0.9652764201164246,
        -0.9999991655349731,
        -0.9953323602676392,
        1.0
      ],
      "type": "VEC4"
    },
    {
      "bufferView": 1,
      "byteOffset": 306488,
      "componentType": 5126,
      "count": 7747,
      "max": [
        0.9969487190246582,
        1.0
      ],
      "min": [
        0.0,
        0.0
      ],
      "type": "VEC2"
    },
    {
      "bufferView": 0,
      "byteOffset": 707328,
      "componentType": 5125,
      "count": 36096,
      "type": "SCALAR"
    },
    {
      "bufferView": 2,
      "byteOffset": 1105392,
      "componentType": 5126,
      "count": 16340,
      "max": [
        1.3850425481796265,
        4.135372161865234,
        1.3850399255752563
      ],
      "min": [
        -1.38503897190094,
        -1.0000007152557373,
        -1.3850425481796265
      ],
      "type": "VEC3"
    },
    {
      "bufferView": 2,
      "byteOffset": 1301472,
      "componentType": 5126,
      "count": 16340,
      "max": [
        0.9999988079071045,
        1.0,
        0.9999988079071045
      ],
      "min": [
        -0.9999988675117493,
        -1.0,
        -0.9999988675117493
      ],
      "type": "VEC3"
    },
    {
      "bufferView": 3,
      "byteOffset": 736928,
      "componentType": 5126,
      "count": 16340,
      "max": [
        0.9999708533287048,
        0.9999915361404419,
        0.9999977350234985,
        1.0
      ],
      "min": [
        -0.9999505281448364,
        -0.9999978542327881,
        -0.9998751878738403,
        -1.0
      ],
      "type": "VEC4"
    },
    {
      "bufferView": 1,
      "byteOffset": 368464,
      "componentType": 5126,
      "count": 16340,
      "max": [
        0.997753381729126,
        1.0000001192092896
      ],
      "min": [
        0.0003167788381688297,
        0.0
      ],
      "type": "VEC2"
    },
    {
      "bufferView": 0,
      "byteOffset": 851712,
      "componentType": 5125,
      "count": 71040,
      "type": "SCALAR"
    },
    {
      "bufferView": 2,
      "byteOffset": 1497552,
      "componentType": 5126,
      "count": 11608,
      "max": [
        3.296743154525757,
        11.838041305541992,
        2.868272304534912
      ],
      "min": [
        -2.805821180343628,
        9.489052899880335e-05,
        -2.4779305458068848
      ],
      "type": "VEC3"
    },
    {
      "bufferView": 2,
      "byteOffset": 1636848,
      "componentType": 5126,
      "count": 11608,
      "max": [
        0.9980828762054443,
        0.9999693632125854,
        0.9999048709869385
      ],
      "min": [
        -0.9997263550758362,
        -1.0,
        -0.9999291300773621
      ],
      "type": "VEC3"
    },
    {
      "bufferView": 3,
      "byteOffset": 998368,
      "componentType": 5126,
      "count": 11608,
      "max": [
        0.9999983310699463,
        0.998972475528717,
        0.9999993443489075,
        1.0
      ],
      "min": [
        -0.9994383454322815,
        -0.9997732639312744,
        -1.0,
        -1.0
      ],
      "type": "VEC4"
    },
    {
      "bufferView": 1,
      "byteOffset": 499184,
      "componentType": 5126,
      "count": 11608,
      "max": [
        1.0000001192092896,
        0.9768372774124146
      ],
      "min": [
        0.0,
        0.0
      ],
      "type": "VEC2"
    },
    {
      "bufferView": 0,
      "byteOffset": 1135872,
      "componentType": 5125,
      "count": 50688,
      "type": "SCALAR"
    }
  ],
  "asset": {
    "extras": {
      "author": "keeganwalden (https://sketchfab.com/keeganwalden)",
      "license": "CC-BY-NC-SA-4.0 (http://creativecommons.org/licenses/by-nc-sa/4.0/)",
      "source": "https://sketchfab.com/3d-models/high-poly-chess-set-1496472c632d438e84a3512cf0cd850a",
      "title": "High Poly Chess Set"
    },
    "generator": "Sketchfab-10.64.0",
    "version": "2.0"
  },
  "bufferViews": [
    {
      "buffer": 0,
      "byteLength": 1338624,
      "name": "floatBufferViews",
      "target": 34963
    },
    {
      "buffer": 0,
      "byteLength": 592048,
      "byteOffset": 1338624,
      "byteStride": 8,
      "name": "floatBufferViews",
      "target": 34962
    },
    {
      "buffer": 0,
      "byteLength": 1776144,
      "byteOffset": 1930672,
      "byteStride": 12,
      "name": "floatBufferViews",
      "target": 34962
    },
    {
      "buffer": 0,
      "byteLength": 1184096,
      "byteOffset": 3706816,
      "byteStride": 16,
      "name": "floatBufferViews",
      "target": 34962
    }
  ],
  "buffers": [
    {
      "byteLength": 4890912,
      "uri": "scene.bin"
    }
  ],
  "images": [
    {
      "uri": "textures/Material_baseColor.png"
    },
    {
      "uri": "textures/Material_metallicRoughness.png"
    },
    {
      "uri": "textures/Material_normal.jpeg"
    }
  ],
  "materials": [
    {
      "doubleSided": true,
      "name": "Material",
      "normalTexture": {
        "index": 2,
        "scale": 0.2530090408317049
      },
      "pbrMetallicRoughness": {
        "baseColorTexture": {
          "index": 0
        },
        "metallicFactor": 0.0,
        "metallicRoughnessTexture": {
          "index": 1
        }
      }
    }
  ],
  "meshes": [
    {
      "name": "king.001_Material_0",
      "primitives": [
        {
          "attributes": {
            "NORMAL": 1,
            "POSITION": 0,
            "TANGENT": 2,
            "TEXCOORD_0": 3
          },
          "indices": 4,
          "material": 0,
          "mode": 4
        }
      ]
    },
    {
      "name": "queen.002_Material_0",
      "primitives": [
        {
          "attributes": {
            "NORMAL": 6,
            "POSITION": 5,
            "TANGENT": 7,
            "TEXCOORD_0": 8
          },
          "indices": 9,
          "material": 0,
          "mode": 4
        }
      ]
    },
    {
      "name": "bishop_w_cutout.001_Material_0",
      "primitives": [
        {
          "attributes": {
            "NORMAL": 11,
            "POSITION": 10,
            "TANGENT": 12,
            "TEXCOORD_0": 13
          },
          "indices": 14,
          "material": 0,
          "mode": 4
        }
      ]
    },
    {
      "name": "pawn.001_Material_0",
      "primitives": [
        {
          "attributes": {
            "NORMAL": 16,
            "POSITION": 15,
            "TANGENT": 17,
            "TEXCOORD_0": 18
          },
          "indices": 19,
          "material": 0,
          "mode": 4
        }
      ]
    },
    {
      "name": "rook.001_Material_0",
      "primitives": [
        {
          "attributes": {
            "NORMAL": 21,
            "POSITION": 20,
            "TANGENT": 22,
            "TEXCOORD_0": 23
          },
          "indices": 24,
          "material": 0,
          "mode": 4
        }
      ]
    },
    {
      "name": "knight.001_Material_0",
      "primitives": [
        {
          "attributes": {
            "NORMAL": 26,
            "POSITION": 25,
            "TANGENT": 27,
            "TEXCOORD_0": 28
          },
          "indices": 29,
          "material": 0,
          "mode": 4
        }
      ]
    }
  ],
  "nodes": [
    {
      "children": [
        1
      ],
      "matrix": [
        1.0,
        0.0,
        0.0,
        0.0,
        0.0,
        2.220446049250313e-16,
        -1.0,
        0.0,
        0.0,
        1.0,
        2.220446049250313e-16,
        0.0,
        0.0,
        0.0,
        0.0,
        1.0
      ],
      "name": "Sketchfab_model"
    },
    {
      "children": [
        2
      ],
      "matrix": [
        1.0,
        0.0,
        0.0,
        0.0,
        0.0,
        0.0,
        1.0,
        0.0,
        0.0,
        -1.0,
        0.0,
        0.0,
        0.0,
        0.0,
        0.0,
        1.0
      ],
      "name": "2be153d5a6aa4dca94f7b022b5fb965d.fbx"
    },
    {
      "children": [
        3,
        5,
        7,
        9,
        11,
        13
      ],
      "name": "RootNode"
    },
    {
      "children": [
        4
      ],
      "matrix": [
        1.0131092009356356e-05,
        0.0,
        -32.27320861816247,
        0.0,
        7.675142872819996e-13,
        32.27320861816406,
        2.4093538246410883e-19,
        0.0,
        32.27320861816247,
        -7.675142872820374e-13,
        1.0131092009356356e-05,
        0.0,
        -162.0513916015625,
        41.520790100097656,
        0.1693248450756073,
        1.0
      ],
      "name": "king.001"
    },
    {
      "mesh": 0,
      "name": "king.001_Material_0"
    },
    {
      "children": [
        6
      ],
      "matrix": [
        31.56731414794922,
        0.0,
        0.0,
        0.0,
        0.0,
        31.5673141479488,
        5.142967545596001e-06,
        0.0,
        0.0,
        -5.142967545596001e-06,
        31.5673141479488,
        0.0,
        -91.30940246582031,
        41.26011276245117,
        -0.34477975964546204,
        1.0
      ],
      "name": "queen.002"
    },
    {
      "mesh": 1,
      "name": "queen.002_Material_0"
    },
    {
      "children": [
        8
      ],
      "matrix": [
        39.76691818237305,
        0.0,
        0.0,
        0.0,
        0.0,
        39.766918182372514,
        6.478854113464202e-06,
        0.0,
        0.0,
        -6.478854113464202e-06,
        39.766918182372514,
        0.0,
        -23.876724243164063,
        74.23245239257813,
        0.18046636879444122,
        1.0
      ],
      "name": "bishop_w_cutout.001"
    },
    {
      "mesh": 2,
      "name": "bishop_w_cutout.001_Material_0"
    },
    {
      "children": [
        10
      ],
      "matrix": [
        20.120481491088867,
        0.0,
        0.0,
        0.0,
        0.0,
        20.1204814910886,
        3.2780429118393014e-06,
        0.0,
        0.0,
        -3.2780429118393014e-06,
        20.1204814910886,
        0.0,
        168.32684326171875,
        29.405441284179688,
        4.790754246641882e-06,
        1.0
      ],
      "name": "pawn.001"
    },
    {
      "mesh": 3,
      "name": "pawn.001_Material_0"
    },
    {
      "children": [
        12
      ],
      "matrix": [
        19.98068618774414,
        0.0,
        0.0,
        0.0,
        0.0,
        19.980686187743874,
        3.2552667953947046e-06,
        0.0,
        0.0,
        -3.2552667953947046e-06,
        19.980686187743874,
        0.0,
        106.46379852294922,
        29.272642135620117,
        -0.01912468671798706,
        1.0
      ],
      "name": "rook.001"
    },
    {
      "mesh": 4,
      "name": "rook.001_Material_0"
    },
    {
      "children": [
        14
      ],
      "matrix": [
        10.0,
        0.0,
        0.0,
        0.0,
        0.0,
        9.999999999999867,
        1.629206991538006e-06,
        0.0,
        0.0,
        -1.629206991538006e-06,
        9.999999999999867,
        0.0,
        38.82684326171875,
        9.521346092224121,
        -1.996728777885437,
        1.0
      ],
      "name": "knight.001"
    },
    {
      "mesh": 5,
      "name": "knight.001_Material_0"
    }
  ],
  "samplers": [
    {
      "magFilter": 9729,
      "minFilter": 9987,
      "wrapS": 10497,
      "wrapT": 10497
    }
  ],
  "scene": 0,
  "scenes": [
    {
      "name": "Sketchfab_Scene",
      "nodes": [
        0
      ]
    }
  ],
  "textures": [
    {
      "sampler": 0,
      "source": 0
    },
    {
      "sampler": 0,
      "source": 1
    },
    {
      "sampler": 0,
      "source": 2
    }
  ]
}
